# xmcd
# 
# Track frame offsets:
#     150
#     17852
#     35131
#     53138
#     70904
#     96718
#     123339
#     147806
#     166678
#     185379
#     199661
#     225286
#     242175
#     259628
#     279033
# 
# Disc length: 4160
# 
# Revision: 4
# Processed by: cddbd v1.5.2PL0 Copyright (c) Steve Scherf et al.
# Submitted via: fre:ac v1.0.17
# 
DISCID=cc103e0f
DTITLE=Various Artist - Nu Jazz, Vol. 2 Disc 1
DYEAR=2005
DGENRE=Jazz
TTITLE0=Re:Jazz feat. Lissa Bassenge - All I Need
TTITLE1=Stacey Kent and Jan Lundgren Trio - Street of Dreams
TTITLE2=Quantic feat. Alice Russell - The Sound of Everything
TTITLE3=Jefferson - Nobody But Him
TTITLE4=Povo - Uam Uam
TTITLE5=Llorca - Indigo Blues
TTITLE6=Nutropic feat. Stephane Belmondo - We've Got It!
TTITLE7=Diesler - Sandcastles
TTITLE8=Earl Zinger - Who Killed Saturday Night
TTITLE9=Marco Di Marco and Nathan Haines - Walking in St. James' Park
TTITLE10=Benjamin Devigne - Ocre
TTITLE11=Slow Train - Inna City Woman (Varano Remix)
TTITLE12=Micatone - That's the Way It Goes
TTITLE13=Metropolitan Jazz Affair - Drifting Swing (RNB Mix)
TTITLE14=St Germain - Deep in It
EXTD=YEAR: 2005
EXTT0=
EXTT1=
EXTT2=
EXTT3=
EXTT4=
EXTT5=
EXTT6=
EXTT7=
EXTT8=
EXTT9=
EXTT10=
EXTT11=
EXTT12=
EXTT13=
EXTT14=
PLAYORDER=
